<?xml version="1.0" encoding="UTF-8"?>
<svg id="Layer_4" xmlns="http://www.w3.org/2000/svg" version="1.1" viewBox="0 0 612 612">
  <!-- Generator: Adobe Illustrator 29.0.0, SVG Export Plug-In . SVG Version: 2.1.0 Build 186)  -->
  <defs>
    <style>
      .st0 {
        fill: #203a72;
      }

      .st1 {
        fill: #eaeaea;
      }

      .st2 {
        fill: #14a0de;
      }
    </style>
  </defs>
  <circle class="st1" cx="306" cy="306" r="283"/>
  <g>
    <g>
      <path class="st0" d="M456,178.7l-6.3,25c-7.1,27.8-30.9,48-59.5,50.2-2.7.2-5.3.5-8.1.6l.6,75.2,16.4,121.9c1.4,10.2-5.8,20.1-16.2,21.4-.7.1-1.4.1-2.1.1-9.1,0-17-6.7-18.3-16l-15.4-114.8c-.2-2.5-2.4-4.2-4.7-4.2s-4.5,1.6-4.8,4.2l-15.4,114.8c-1.4,9.3-9.1,16-18.3,16s-1.5-.1-2.2-.1c-10.2-1.2-17.4-11.2-16-21.2l12.8-95.7,2.1-2.1c11.1-11.1,16.6-26.3,15.2-41.9-1-11.6-5.8-22.1-13.4-30.4v-27.1c-2.4-.1-5.1-.2-7.5-.6-28.7-2.2-52.6-22.4-59.5-50.2l-6.3-25c-2.4-9.4,3.7-19,13.5-20.5,8.6-1.2,16.6,4.6,18.6,13.2l6,24.4c3.6,13.9,15.5,24.1,30.1,25.1,13.5,1.2,28.7,1.6,45,1.6s31.6-.5,45-1.6c14.5-1,26.5-11.2,30.1-25.1l6.1-24.4c2.1-8.6,10.1-14.3,18.6-13.2,9.7,1.5,16,11.1,13.5,20.5h.5Z"/>
      <path class="st0" d="M342.5,212.5c20.4,0,36.8-16.5,36.8-36.8s-16.5-36.8-36.8-36.8-36.8,16.5-36.8,36.8,16.5,36.8,36.8,36.8Z"/>
    </g>
    <path class="st2" d="M290.2,343.3l-55.9,55.9c-3.1,3.1-8.3,3.1-11.4,0l-54.8-54.8c-.5-.5-1-1-1.4-1.6h24.1c2,0,4-1.1,5.1-2.7l8.3-13,19.4,39.4c1,2.1,3.1,3.5,5.5,3.5h0c2.4,0,4.5-1.5,5.5-3.6l10.7-23.4h17c3.5,0,6.2-2.7,6.2-6.1s-2.7-6.1-6.2-6.1h-20.9c-2.5,0-4.6,1.4-5.6,3.6l-7,15.2-18.5-37.5c-1-2-2.9-3.2-5.1-3.4-2.2,0-4.3.9-5.5,2.7l-12.4,19.4h-28.5c-4.6-11.3-3.9-24.4,3.2-34.7,13.8-20.1,41.4-21.9,57.7-5.6l8.6,8.6,7.5-7.5c12.9-12.8,33.5-16.2,48.6-5.8,20,13.8,21.9,41.4,5.6,57.7h.2Z"/>
  </g>
</svg>