<?xml version="1.0" encoding="UTF-8"?>
<svg id="Layer_4" xmlns="http://www.w3.org/2000/svg" version="1.1" viewBox="0 0 612 612">
  <!-- Generator: Adobe Illustrator 29.0.0, SVG Export Plug-In . SVG Version: 2.1.0 Build 186)  -->
  <defs>
    <style>
      .st0 {
        fill: #203a72;
      }

      .st1 {
        fill: #eaeaea;
      }

      .st2 {
        fill: #14a0de;
      }
    </style>
  </defs>
  <circle class="st1" cx="306" cy="306" r="283"/>
  <g>
    <g>
      <path class="st0" d="M145.4,325.5c12.3,0,22.3-10,22.3-22.3s-10-22.3-22.3-22.3-22.2,10-22.2,22.3,10,22.3,22.2,22.3Z"/>
      <path class="st0" d="M188.4,341.6c-4.1-5.1-5.4-11.8-3.7-18l-18,5.6c-4.3,1.3-8.8,2-13.3,2h-18.6c-6,0-11.9,2.3-16.3,6.3l-26.7,24.2c-3.8,3.4-4,9.2-.7,12.9,1.8,2,4.3,3,6.8,3s4.4-.7,6.1-2.3l15.4-13.9-8.8,26.7c-1.4,4.3,1.8,8.6,6.3,8.6h5.5l-3.2,28.3c-.6,5,3,9.6,8,10.1,5,.6,9.5-3,10.1-8l3.3-29.2c0-.6.6-1.1,1.2-1.1h6.9c.6,0,1.2.5,1.2,1.1l3.4,29.2c.5,4.7,4.5,8.1,9.1,8.1s.7,0,1,0c5.1-.5,8.7-5.1,8-10.1l-3.2-28.3h5.5c4.5,0,7.7-4.4,6.3-8.6l-13.2-40c1.8-.4,3.5-.9,5.3-1.4l16.2-5.1Z"/>
      <path class="st0" d="M520.1,361.8l-26.7-24.2c-4.5-4-10.4-6.3-16.4-6.3h-18.6c-4.5,0-9-.7-13.3-2l-17.9-5.6c1.7,6.2.4,13-3.7,18l16.2,5.1c.7.2,1.3.4,2,.5v78.8c0,5.1,4.1,9.1,9.1,9.1s9.1-4.1,9.1-9.1v-36.5c0-1.3,1.1-2.4,2.4-2.4h8.3c1.3,0,2.4,1.1,2.4,2.4v36.5c0,5.1,4.1,9.1,9.1,9.1s9.1-4.1,9.1-9.1v-65.5l16.4,14.9c1.8,1.6,4,2.3,6.1,2.3s4.9-1,6.8-3c3.4-3.7,3.1-9.5-.6-12.9Z"/>
      <path class="st0" d="M466.6,325.5c12.3,0,22.3-10,22.3-22.3s-10-22.3-22.3-22.3-22.2,10-22.2,22.3,10,22.3,22.2,22.3Z"/>
      <path class="st0" d="M388.2,280.8c-5-7.3-13.3-11.7-22.1-11.7h-18.4c-8.9,0-17.1,4.4-22.1,11.7l-19.6,28.8-19.6-28.8c-5-7.3-13.3-11.7-22.1-11.7h-18.4c-8.9,0-17.1,4.4-22.1,11.7l-28.7,42.1c-3.4,5-2.1,11.8,2.9,15.2,1.9,1.3,4,1.9,6.2,1.9,3.5,0,6.9-1.7,9.1-4.8l14.7-21.5v110.1c0,5.5,3.7,10.5,9.1,11.4,6.9,1.1,12.8-4.2,12.8-10.8v-65.6c0-1.3,1.1-2.4,2.4-2.4h5.7c1.3,0,2.4,1.1,2.4,2.4v65c0,5.5,3.7,10.5,9.1,11.4,6.9,1.1,12.8-4.2,12.8-10.8v-110.6l14.7,21.5c2,3,5.4,4.8,9.1,4.8s7-1.8,9.1-4.8l17.7-26-16.5,50.2c-1.6,5,2.1,10.1,7.3,10.1h6.5l-2.6,54.3c-.3,6,4.4,11.2,10.4,11.5.2,0,.4,0,.5,0,5.8,0,10.7-4.6,10.9-10.4l2.6-54.2c0-.6.6-1.2,1.2-1.2h7.4c.6,0,1.2.5,1.2,1.2l2.6,53.6c.3,5.5,4.2,10.3,9.7,10.9,6.9.8,12.6-4.8,12.3-11.4l-2.6-54.3h6.5c5.3,0,9-5.1,7.3-10.1l-16.5-50.2,17.7,26c3.4,5,10.2,6.3,15.2,2.9,5-3.4,6.3-10.2,2.9-15.2l-28.7-42.1Z"/>
      <circle class="st0" cx="255.1" cy="238.6" r="24.4"/>
      <circle class="st0" cx="356.9" cy="238.6" r="24.4"/>
    </g>
    <path class="st2" d="M155.5,259.7c-1.1,0-2.2-.3-3.3-.8-3.3-1.8-4.4-5.9-2.6-9.2,31.4-57,91.4-92.3,156.4-92.3s124.9,35.4,156.3,92.3c1.8,3.3.6,7.4-2.6,9.2-3.3,1.8-7.4.6-9.2-2.6-29.1-52.7-84.4-85.4-144.5-85.4s-115.5,32.7-144.6,85.4c-1.2,2.2-3.5,3.5-5.9,3.5Z"/>
  </g>
</svg>