<?xml version="1.0" encoding="UTF-8"?>
<svg id="Layer_4" xmlns="http://www.w3.org/2000/svg" version="1.1" viewBox="0 0 612 612">
  <!-- Generator: Adobe Illustrator 29.0.0, SVG Export Plug-In . SVG Version: 2.1.0 Build 186)  -->
  <defs>
    <style>
      .st0 {
        fill: #203a72;
      }

      .st1 {
        fill: #eaeaea;
      }

      .st2 {
        fill: #14a0de;
      }
    </style>
  </defs>
  <circle class="st1" cx="306" cy="306" r="283"/>
  <g>
    <path class="st0" d="M154.5,177.6h268.2v79.1c7.7,1.1,14.9,3.7,21.5,7.3v-97.2c0-6-4.7-10.7-10.7-10.7H143.7c-5.9,0-10.7,4.7-10.7,10.7v244.6c0,6,4.9,10.7,10.7,10.7h183.6l2.4-20c0-.4.1-1,.3-1.4h-175.6v-223.1Z"/>
    <path class="st0" d="M413,364.2c23.9,0,43.4-19.4,43.4-43.3s-19.4-43.3-43.4-43.3-43.3,19.4-43.3,43.3,19.4,43.3,43.3,43.3Z"/>
    <path class="st0" d="M474.8,404.8c-1.7-14.3-9.9-26.4-21.4-33.6-11.1,8.9-25,14.5-40.4,14.5s-29.3-5.6-40.4-14.5c-11.5,7.2-19.7,19.2-21.4,33.6l-4.2,34.5c-.8,6.5,3.5,12.8,9.9,14.1,17.7,3.6,36.5,5.5,56,5.5s38.3-1.9,56-5.5c6.5-1.3,10.7-7.5,9.9-14.1l-4.2-34.5Z"/>
    <path class="st2" d="M390.5,231.2c0-5.9-4.8-10.7-10.7-10.7h-110.3c-5.9,0-10.7,4.8-10.7,10.7s4.8,10.7,10.7,10.7h110.3c5.9,0,10.7-4.8,10.7-10.7Z"/>
    <path class="st2" d="M333.4,278.5h-63.8c-5.9,0-10.7,4.8-10.7,10.7s4.8,10.7,10.7,10.7h63.8c5.9,0,10.7-4.8,10.7-10.7s-4.8-10.7-10.7-10.7Z"/>
    <path class="st2" d="M323.8,336.4h-54.3c-5.9,0-10.7,4.8-10.7,10.7s4.8,10.7,10.7,10.7h54.3c5.9,0,10.7-4.8,10.7-10.7s-4.8-10.7-10.7-10.7Z"/>
    <path class="st2" d="M203.5,251.5c2,2,4.7,3.1,7.6,3.1s5.6-1.1,7.6-3.1l25.3-25.3c4.2-4.2,4.2-11,0-15.2s-11-4.2-15.2,0l-17.7,17.7-6.1-6.1c-4.2-4.2-11-4.2-15.2,0s-4.2,11,0,15.2l13.7,13.7Z"/>
    <path class="st2" d="M189.8,295.8l13.7,13.7c2,2,4.7,3.1,7.6,3.1s5.6-1.1,7.6-3.1l25.3-25.3c4.2-4.2,4.2-11,0-15.2s-11-4.2-15.2,0l-17.7,17.7-6.1-6.1c-4.2-4.2-11-4.2-15.2,0s-4.2,11,0,15.2Z"/>
    <path class="st2" d="M189.8,353.7l13.7,13.7c2,2,4.7,3.1,7.6,3.1s5.6-1.1,7.6-3.1l25.3-25.3c4.2-4.2,4.2-11,0-15.2-4.2-4.2-11-4.2-15.2,0l-17.7,17.7-6.1-6.1c-4.2-4.2-11-4.2-15.2,0-4.2,4.2-4.2,11,0,15.2Z"/>
  </g>
</svg>