<?xml version="1.0" encoding="UTF-8"?>
<svg id="Layer_4" xmlns="http://www.w3.org/2000/svg" version="1.1" viewBox="0 0 612 612">
  <!-- Generator: Adobe Illustrator 29.0.0, SVG Export Plug-In . SVG Version: 2.1.0 Build 186)  -->
  <defs>
    <style>
      .st0 {
        fill: #203a72;
      }

      .st1 {
        fill: #eaeaea;
      }

      .st2 {
        fill: #14a0de;
      }
    </style>
  </defs>
  <circle class="st1" cx="306" cy="306" r="283"/>
  <g>
    <path class="st0" d="M249.5,384.7c-6-9.7-15.3-17-26.4-20.4-1.7-.6-3.5.5-4.1,2.2l-17.8,50.9-4-33.2h2.7c1.7,0,3-1.4,3-3v-9.2c0-1.6-1.3-3-3-3h-14.8c-1.7,0-3,1.4-3,3v9.2c0,1.6,1.3,3,3,3h2.7l-4,33.2-17.8-50.9c-.6-1.7-2.4-2.7-4.1-2.2-17.5,5.4-30.8,20.6-33.1,39.5l-2.3,27.3c-.6,7.9,5.6,14.7,13.6,14.7h84.7c0,0,1.6-18.9,1.6-18.9v-.6c2.1-16.7,10.6-31.5,23.4-41.7Z"/>
    <path class="st0" d="M192.5,359c19.9,0,36.1-16.2,36.1-36.1s-16.2-36.1-36.1-36.1-36.1,16.2-36.1,36.1,16.2,36.1,36.1,36.1Z"/>
    <path class="st0" d="M483.4,403.8c-2.3-19-15.6-34.1-33.1-39.5-1.7-.6-3.5.5-4.1,2.2l-17.8,50.9-4.1-33.2h2.7c1.7,0,3-1.4,3-3v-9.2c0-1.6-1.3-3-3-3h-14.9c-1.6,0-2.9,1.4-2.9,3v9.2c0,1.6,1.3,3,2.9,3h2.7l-4.1,33.2-17.7-50.9c-.6-1.7-2.4-2.7-4.1-2.2-11.1,3.4-20.4,10.7-26.4,20.4,12.7,10.2,21.3,25.1,23.3,41.7v.3c0,0,0,.2,0,.2l1.6,18.9h84.7c8,0,14.2-6.7,13.6-14.6l-2.3-27.4Z"/>
    <path class="st0" d="M419.7,359c19.9,0,36.1-16.2,36.1-36.1s-16.2-36.1-36.1-36.1-36.1,16.2-36.1,36.1,16.2,36.1,36.1,36.1Z"/>
    <path class="st0" d="M336.7,388.8c-1.7-.5-3.6.5-4.1,2.2l-17.8,50.9-4.1-33.3h2.7c1.6,0,3-1.3,3-3v-9.2c0-1.6-1.3-3-3-3h-14.9c-1.6,0-3,1.3-3,3v9.2c0,1.6,1.3,3,3,3h2.7l-4.1,33.3-17.8-50.9c-.6-1.7-2.4-2.7-4.1-2.2-17.4,5.4-30.8,20.6-33.1,39.5l-2.3,27.3c-.7,7.9,5.6,14.7,13.5,14.7h105.2c8,.1,14.2-6.7,13.5-14.6l-2.3-27.4c-2.3-19-15.6-34.1-33.1-39.6Z"/>
    <circle class="st0" cx="306.1" cy="347.4" r="36.1"/>
    <path class="st2" d="M257.4,257.5h24.4l17.3,30.9c3,5.4,10.7,5.4,13.8,0l17.3-30.9h24.4c10.6,0,19.2-8.6,19.2-19.2v-77.4c0-10.6-8.6-19.2-19.2-19.2h-97.3c-10.6,0-19.2,8.6-19.2,19.2v77.4c0,10.6,8.6,19.2,19.2,19.2ZM275,188.9l18.3-2c.7,0,1.3-.5,1.6-1.1l7.6-16.8c1.3-3,5.5-3,6.9,0l7.6,16.8c.3.6.9,1.1,1.6,1.1l18.3,2c3.2.4,4.5,4.4,2.1,6.5l-13.6,12.5c-.5.5-.7,1.2-.6,1.8l3.7,18.1c.7,3.2-2.7,5.6-5.6,4l-16-9.1c-.6-.3-1.3-.3-1.9,0l-16,9.1c-2.8,1.6-6.2-.9-5.6-4l3.7-18.1c.1-.7,0-1.4-.6-1.8l-13.6-12.5c-2.4-2.2-1.1-6.2,2.1-6.5Z"/>
  </g>
</svg>