<?xml version="1.0" encoding="UTF-8"?>
<svg id="Layer_4" xmlns="http://www.w3.org/2000/svg" version="1.1" viewBox="0 0 612 612">
  <!-- Generator: Adobe Illustrator 29.0.0, SVG Export Plug-In . SVG Version: 2.1.0 Build 186)  -->
  <defs>
    <style>
      .st0 {
        fill: #203a72;
      }

      .st1 {
        fill: #eaeaea;
      }

      .st2 {
        fill: #14a0de;
      }
    </style>
  </defs>
  <circle class="st1" cx="306" cy="306" r="283"/>
  <g>
    <path class="st2" d="M264.3,250.2c2,1.7,2.9,4.4,2.2,6.9l-10.9,42c-1.5,5.9,5,10.6,10.1,7.3l14.3-9.1c1.1-13,11.7-23.4,24.8-24.1h.2s2.3,0,2.3,0h.2c6.6.3,12.7,3,17.4,7.7,4.6,4.6,7.3,10.6,7.7,17.1l13.3,8.5c5.2,3.3,11.7-1.4,10.1-7.3l-10.9-41.9c-.7-2.5.2-5.2,2.2-6.9l33.5-27.6c4.7-3.9,2.2-11.5-3.9-11.9l-43.2-2.6c-2.6-.2-4.9-1.8-5.8-4.2l-15.9-40.4c-2.3-5.7-10.3-5.7-12.5,0l-15.8,40.3c-1,2.4-3.3,4.1-5.9,4.2l-43.3,2.6c-6.1.4-8.6,8-3.9,11.9l33.4,27.5Z"/>
    <path class="st2" d="M229.3,254.2l-36.5-2.2c-2.2-.1-4.1-1.5-5-3.6l-13.4-34.2c-1.9-4.8-8.7-4.8-10.6,0l-13.4,34.1c-.8,2.1-2.7,3.5-5,3.6l-36.7,2.2c-5.2.3-7.3,6.8-3.3,10.1l28.3,23.2c1.7,1.4,2.4,3.7,1.9,5.8l-9.2,35.5c-1.3,5,4.2,9,8.6,6.2l30.8-19.7c1.9-1.2,4.3-1.2,6.1,0l31,19.8c4.4,2.8,9.9-1.2,8.6-6.2l-9.2-35.4c-.6-2.1.2-4.4,1.9-5.8l28.4-23.3c4-3.3,1.9-9.8-3.3-10.1Z"/>
    <path class="st2" d="M506.4,264.3c4-3.3,1.9-9.8-3.3-10.1l-36.5-2.2c-2.2-.1-4.1-1.5-5-3.6l-13.4-34.2c-1.9-4.8-8.7-4.8-10.6,0l-13.4,34.1c-.8,2.1-2.7,3.5-5,3.6l-36.7,2.2c-5.2.3-7.3,6.8-3.3,10.1l28.3,23.2c1.7,1.4,2.4,3.7,1.9,5.8l-9.2,35.5c-1.3,5,4.2,9,8.6,6.2l30.8-19.7c1.9-1.2,4.3-1.2,6.1,0l31,19.8c4.4,2.8,9.9-1.2,8.6-6.2l-9.2-35.4c-.6-2.1.2-4.4,1.9-5.8l28.4-23.3Z"/>
    <path class="st0" d="M382.3,354.4c-4.9,0-9.2,2.6-11.6,6.5v-.4c0-7.6-6.2-13.7-13.7-13.7-4.9,0-9.2,2.6-11.6,6.4v-.3c0-7.6-6.2-13.7-13.7-13.7-4.9,0-9.2,2.6-11.6,6.4v-45.9c0-3.7-1.5-7.1-4.1-9.7-2.6-2.6-6-4-9.7-4,0,0,0,0,0,0-7.5,0-13.6,6.2-13.6,13.7v89.6c.1.8-.3,1.4-1,1.8-.7.3-1.5.2-2.1-.4l-13.9-13.8c-4.7-4.7-12.1-5.3-17.6-1.6-3.2,2.2-5.4,5.7-6,9.5-.6,3.9.6,7.8,3.1,10.8l34.6,41.7c9.8,11.8,24.2,18.6,39.6,18.6h21.5c12.1,0,23.4-4.8,31.9-13.3,8.5-8.5,13.2-19.9,13.2-31.9v-42.7c0-7.5-6.2-13.7-13.8-13.6Z"/>
  </g>
</svg>