<?xml version="1.0" encoding="UTF-8"?>
<svg id="Layer_4" xmlns="http://www.w3.org/2000/svg" version="1.1" viewBox="0 0 612 612">
  <!-- Generator: Adobe Illustrator 29.0.0, SVG Export Plug-In . SVG Version: 2.1.0 Build 186)  -->
  <defs>
    <style>
      .st0 {
        fill: #203a72;
      }

      .st1 {
        fill: #eaeaea;
      }

      .st2 {
        fill: #14a0de;
      }
    </style>
  </defs>
  <circle class="st1" cx="306" cy="306" r="283"/>
  <g>
    <g>
      <path class="st0" d="M234.9,329.5c1.4-12.4,6.9-23.5,15.2-32.2-5.6-10-15.3-17.2-26.5-19.9l-16.5,41.3-3.6-29.8h2.4c1.4,0,2.6-1.1,2.6-2.6v-8c0-1.4-1.1-2.7-2.6-2.7h-13.1c-1.4,0-2.6,1.2-2.6,2.7v8c0,1.4,1.2,2.6,2.6,2.6h2.4l-3.6,29.8-16.5-41.3c-16.6,4-29.6,17.8-31.7,35.5l-4.1,33.9c-.5,4.4,2.4,8.5,6.7,9.5,6.2,1.4,12.5,2.4,18.9,3.2l4.7,79.4c.3,6.3,5.5,11.1,11.8,11.1h36.1c6.3,0,11.4-4.9,11.8-11.1l3.6-62.5c-1.8-3.9-2.5-8.3-2-12.9l4.1-33.9Z"/>
      <path class="st0" d="M199.3,268c20.4,0,36.9-16.5,36.9-36.9s-16.5-36.9-36.9-36.9-36.9,16.5-36.9,36.9,16.5,36.9,36.9,36.9Z"/>
      <path class="st0" d="M468.7,312.9c-2.1-17.7-15.1-31.5-31.7-35.5l-16.5,41.3-3.6-29.8h2.4c1.4,0,2.6-1.1,2.6-2.6v-8c0-1.4-1.1-2.7-2.6-2.7h-13c-1.4,0-2.7,1.2-2.7,2.7v8c0,1.4,1.2,2.6,2.7,2.6h2.4l-3.6,29.8-16.5-41.3c-11.3,2.7-20.9,9.9-26.5,19.8,8.2,8.7,13.8,19.9,15.3,32.3l4.1,33.9c.5,4.7-.2,9.1-2.1,13l3.7,62.5c.3,6.3,5.5,11.1,11.8,11.1h36.1c6.3,0,11.4-4.9,11.8-11.1l4.6-79.4c6.4-.8,12.8-1.8,19-3.2,4.3-.9,7.2-5,6.6-9.5l-4.1-33.9Z"/>
      <path class="st0" d="M375.8,231c0,20.4,16.5,36.9,36.9,36.9s36.9-16.5,36.9-36.9-16.5-36.9-36.9-36.9-36.9,16.5-36.9,36.9Z"/>
      <path class="st0" d="M330.3,295.8l-16.5,41.3-3.6-29.8h2.4c1.4,0,2.6-1.2,2.6-2.6v-8c0-1.4-1.2-2.6-2.6-2.6h-13.1c-1.4,0-2.6,1.2-2.6,2.6v8c0,1.4,1.2,2.6,2.6,2.6h2.4l-3.6,29.8-16.5-41.3c-16.6,4-29.6,17.8-31.7,35.5l-4.1,34c-.5,4.4,2.3,8.6,6.7,9.5,6.2,1.3,12.5,2.3,19,3.2l4.6,79.4c.4,6.3,5.5,11.2,11.8,11.2h36.1c6.3,0,11.5-4.9,11.8-11.2l4.6-79.4c6.4-.9,12.8-1.9,19-3.2,4.3-.9,7.2-5.1,6.7-9.5l-4.1-34c-2.1-17.7-15.1-31.5-31.7-35.5Z"/>
      <path class="st0" d="M306,212.6c-20.4,0-36.9,16.5-36.9,36.9s16.5,36.9,36.9,36.9,36.9-16.5,36.9-36.9-16.5-36.9-36.9-36.9Z"/>
    </g>
    <g>
      <path class="st2" d="M306.1,186.6c5,0,9-4,9-9v-25.1c0-5-4-9-9-9s-9,4-9,9v25.1c0,5,4,9,9,9Z"/>
      <path class="st2" d="M339.3,193.4c1.1.5,2.3.7,3.5.7,3.5,0,6.8-2.1,8.3-5.5l9.8-23.1c1.9-4.6-.2-9.9-4.8-11.8-4.6-1.9-9.9.2-11.8,4.8l-9.8,23.1c-1.9,4.6.2,9.9,4.8,11.8Z"/>
      <path class="st2" d="M260.9,188.6c1.5,3.4,4.8,5.5,8.3,5.5s2.4-.2,3.5-.7c4.6-1.9,6.7-7.2,4.8-11.8l-9.8-23.1c-2-4.6-7.2-6.7-11.8-4.8-4.6,1.9-6.7,7.2-4.8,11.8l9.8,23.1Z"/>
    </g>
  </g>
</svg>