<?xml version="1.0" encoding="UTF-8"?>
<svg id="Layer_4" xmlns="http://www.w3.org/2000/svg" version="1.1" viewBox="0 0 612 612">
  <!-- Generator: Adobe Illustrator 29.0.0, SVG Export Plug-In . SVG Version: 2.1.0 Build 186)  -->
  <defs>
    <style>
      .st0 {
        fill: #203a72;
      }

      .st1 {
        fill: #eaeaea;
      }

      .st2 {
        fill: #14a0de;
      }
    </style>
  </defs>
  <circle class="st1" cx="306" cy="306" r="283"/>
  <g>
    <path class="st2" d="M487.3,268.4l-60.2-43.5v-57c0-5-4.1-9-9-9h-27.9c-5,0-9,4.1-9,9v23.8l-64.1-46.2c-6.6-4.7-15.4-4.7-22,0l-170.3,122.9c-9.8,7.1-10.4,21.6-1.2,29.5,6.6,5.6,16.2,6,23.2,1l159.3-115,159.3,115c7,5.1,16.6,4.7,23.2-1,9.2-7.9,8.6-22.3-1.2-29.5Z"/>
    <g>
      <path class="st0" d="M327.2,331.9l-32.4,32.4-11.9-11.9c-4.6-4.7-12.2-4.7-16.8,0-4.6,4.6-4.6,12.2,0,16.8l20.3,20.3c2.3,2.3,5.4,3.5,8.4,3.5s6.1-1.2,8.4-3.5l40.8-40.8c4.7-4.7,4.7-12.2,0-16.8-4.6-4.7-12.2-4.7-16.8,0Z"/>
      <path class="st0" d="M306,212.2l-135.8,98v135.6c0,13.4,10.9,24.2,24.3,24.2h223c13.4,0,24.3-11,24.3-24.3v-135.5l-135.8-98ZM306,431.2c-39.9,0-72.2-32.3-72.2-72.2s32.3-72.2,72.2-72.2,72.2,32.3,72.2,72.2-32.3,72.2-72.2,72.2Z"/>
    </g>
  </g>
</svg>