<?xml version="1.0" encoding="UTF-8"?>
<svg id="Layer_4" xmlns="http://www.w3.org/2000/svg" version="1.1" viewBox="0 0 612 612">
  <!-- Generator: Adobe Illustrator 29.0.0, SVG Export Plug-In . SVG Version: 2.1.0 Build 186)  -->
  <defs>
    <style>
      .st0 {
        fill: #203a72;
      }

      .st1 {
        fill: #eaeaea;
      }

      .st2 {
        fill: #14a0de;
      }
    </style>
  </defs>
  <circle class="st1" cx="306" cy="306" r="283"/>
  <g>
    <path class="st0" d="M430.1,421.6h-16.3v-33.4c0-4.4-3.5-7.9-7.9-7.9h-91.9v-25.1c28.8-3.9,51-28.5,51-58.3s-26.4-58.9-58.9-58.9-58.9,26.4-58.9,58.9,22.2,54.4,51,58.3v25.1h-91.9c-4.4,0-7.9,3.5-7.9,7.9v33.4h-16.3c-5.8,0-10.4,4.7-10.4,10.4v34.8c0,5.8,4.7,10.4,10.4,10.4h48.5c5.8,0,10.4-4.7,10.4-10.4v-34.8c0-5.8-4.7-10.4-10.4-10.4h-16.3v-25.5h84v25.5h-16.3c-5.8,0-10.4,4.7-10.4,10.4v34.8c0,5.8,4.7,10.4,10.4,10.4h48.5c5.8,0,10.4-4.7,10.4-10.4v-34.8c0-5.8-4.7-10.4-10.4-10.4h-16.3v-25.5h84v25.5h-16.3c-5.8,0-10.4,4.7-10.4,10.4v34.8c0,5.8,4.7,10.4,10.4,10.4h48.5c5.8,0,10.4-4.7,10.4-10.4v-34.8c0-5.8-4.7-10.4-10.4-10.4ZM283.8,312.1c0-.9.7-1.7,1.6-1.7h8.9c.7,0,1.4.5,1.6,1.2.6,3.6,3.7,6.3,7.4,6.3h5.1c3.8,0,7.2-2.6,7.9-6.3.8-4.7-2.9-8.8-7.4-8.8h-4.6c-10.2,0-19.3-7.4-20.3-17.6-1-10.5,6.3-19.6,16.2-21.2v-7.7c0-.9.7-1.6,1.6-1.6h8.8c.9,0,1.6.7,1.6,1.6v7.7c8.7,1.5,15.5,8.6,16.2,17.5,0,.9-.7,1.7-1.6,1.7h-8.9c-.7,0-1.4-.5-1.6-1.2-.6-3.6-3.7-6.3-7.4-6.3h-5.1c-3.8,0-7.2,2.6-7.9,6.3-.8,4.7,2.9,8.8,7.4,8.8h5.5c11.4,0,20.6,9.9,19.5,21.5-.9,8.8-7.8,15.5-16.2,17.2v7.8c0,.9-.7,1.6-1.6,1.6h-8.8c-.9,0-1.6-.7-1.6-1.6v-7.7c-8.7-1.5-15.5-8.6-16.2-17.5Z"/>
    <path class="st2" d="M188,304.8h35.2c4.4,0,7.9-3.5,7.9-7.9s-3.5-7.9-7.9-7.9h-35.2c-3.2-8.7-11.5-14.9-21.3-14.9s-22.8,10.2-22.8,22.8,10.2,22.8,22.8,22.8,18.1-6.2,21.3-14.9Z"/>
    <path class="st2" d="M217,219l24.9,24.9c1.5,1.5,3.6,2.3,5.6,2.3s4.1-.8,5.6-2.3c3.1-3.1,3.1-8.1,0-11.2l-24.9-24.9c3.9-8.4,2.4-18.7-4.5-25.6-8.9-8.9-23.3-8.9-32.2,0-8.9,8.9-8.9,23.3,0,32.2,6.9,6.9,17.2,8.4,25.6,4.5Z"/>
    <path class="st2" d="M298.1,178.9v35.2c0,4.4,3.5,7.9,7.9,7.9s7.9-3.5,7.9-7.9v-35.2c8.7-3.2,14.9-11.5,14.9-21.3s-10.2-22.8-22.8-22.8-22.8,10.2-22.8,22.8,6.2,18.1,14.9,21.3Z"/>
    <path class="st2" d="M364.6,246.2c2,0,4.1-.8,5.6-2.3l24.9-24.9c8.4,3.9,18.7,2.4,25.6-4.5,8.9-8.9,8.9-23.3,0-32.2-8.9-8.9-23.3-8.9-32.2,0-6.9,6.9-8.4,17.2-4.5,25.6l-24.9,24.9c-3.1,3.1-3.1,8.1,0,11.2,1.5,1.5,3.6,2.3,5.6,2.3Z"/>
    <path class="st2" d="M445.3,274c-9.8,0-18.1,6.2-21.3,14.9h-35.2c-4.4,0-7.9,3.5-7.9,7.9s3.5,7.9,7.9,7.9h35.2c3.2,8.7,11.5,14.9,21.3,14.9s22.8-10.2,22.8-22.8-10.2-22.8-22.8-22.8Z"/>
  </g>
</svg>