<?xml version="1.0" encoding="UTF-8"?>
<svg id="Layer_4" xmlns="http://www.w3.org/2000/svg" version="1.1" viewBox="0 0 612 612">
  <!-- Generator: Adobe Illustrator 29.0.0, SVG Export Plug-In . SVG Version: 2.1.0 Build 186)  -->
  <defs>
    <style>
      .st0 {
        fill: #203a72;
      }

      .st1 {
        fill: #eaeaea;
      }

      .st2 {
        fill: #14a0de;
      }
    </style>
  </defs>
  <circle class="st1" cx="306" cy="306" r="283"/>
  <g>
    <g>
      <path class="st0" d="M346.1,282.1h-40.7c-4.1,0-7.6-3.4-7.6-7.6s3.4-7.6,7.6-7.6h31.9c3.9,5.2,6.8,10.2,8.7,15.2Z"/>
      <path class="st0" d="M431.4,428.6h-37.8v-80.9c-2.1.5-4.3.7-6.5.7s-5.8-.4-8.6-1.2v81.4h-134.2c-4.2,0-7.6,3.4-7.6,7.6v10.9c0,8.3-6.8,15.1-15.2,15.1s-15.1-6.8-15.1-15.1v-195.6c0-4.4-1.1-9-3.1-13.1l-.9-1.9h120.7c-.9-4.9-1.2-10-.9-15.2h-146c-16.7,0-30.3,13.6-30.3,30.2v13.7c0,4.2,3.4,7.6,7.6,7.6h37.9v174.3c0,16.7,13.6,30.2,30.2,30.2h187.2c16.6,0,30.2-13.5,30.2-30.2v-10.9c0-4.2-3.4-7.6-7.6-7.6Z"/>
      <path class="st0" d="M348.3,321.6h-42.9c-4.1,0-7.6-3.4-7.6-7.6s3.4-7.7,7.6-7.7h42.3v11c0,1.4.2,2.8.6,4.2Z"/>
      <path class="st0" d="M350,345.8h-44.5c-4.2,0-7.6,3.4-7.6,7.6s3.4,7.5,7.6,7.5h44.5c4.2,0,7.5-3.4,7.5-7.5s-3.4-7.6-7.5-7.6Z"/>
      <path class="st0" d="M350,385.3h-44.5c-4.2,0-7.6,3.4-7.6,7.6s3.4,7.6,7.6,7.6h44.5c4.2,0,7.5-3.4,7.5-7.6s-3.4-7.6-7.5-7.6Z"/>
      <path class="st0" d="M275.1,265.6h-40.6c-4.6,0-8.4,3.7-8.4,8.4v40.6c0,4.6,3.7,8.4,8.4,8.4h40.6c4.6,0,8.4-3.7,8.4-8.4v-40.6c0-4.6-3.7-8.4-8.4-8.4ZM270.8,290.1h0l-16.2,16.2c-1.1,1-2.4,1.6-3.9,1.6s-2.9-.6-3.9-1.6l-8-8c-2.1-2.2-2.1-5.7,0-7.8,2.2-2.1,5.7-2.2,7.8,0l4.1,4.1,12.3-12.3c2.2-2.2,5.7-2.2,7.8,0,1,1,1.6,2.4,1.6,3.9s-.6,2.9-1.6,3.9Z"/>
      <path class="st0" d="M275.1,344.5h-40.6c-4.6,0-8.4,3.7-8.4,8.4v40.6c0,4.6,3.7,8.4,8.4,8.4h40.6c4.6,0,8.4-3.7,8.4-8.4v-40.6c0-4.6-3.7-8.4-8.4-8.4ZM270.8,369h0l-16.2,16.2c-1.1,1-2.4,1.6-3.9,1.6s-2.9-.6-3.9-1.6l-8-8c-2.1-2.2-2.1-5.7,0-7.8,2.2-2.1,5.7-2.2,7.8,0l4.1,4.1,12.3-12.3c2.2-2.2,5.7-2.2,7.8,0,1,1,1.6,2.4,1.6,3.9s-.6,2.9-1.6,3.9Z"/>
    </g>
    <g>
      <path class="st2" d="M410.6,298.6h-47c-1.3,0-2.4,1.1-2.4,2.4v16.4c0,1.3,1.1,2.4,2.4,2.4h5.6c1.4,8.6,8.9,15.2,17.9,15.2s16.5-6.6,17.9-15.2h5.6c1.3,0,2.4-1.1,2.4-2.4v-16.4c0-1.3-1.1-2.4-2.4-2.4Z"/>
      <path class="st2" d="M387.1,161.9c3.4,0,6.1-2.7,6.1-6.1v-15c0-3.4-2.7-6.1-6.1-6.1s-6.1,2.7-6.1,6.1v15c0,3.4,2.7,6.1,6.1,6.1Z"/>
      <path class="st2" d="M347.2,168.1c1.1,1.9,3.2,3,5.3,3s2.1-.3,3-.8c2.9-1.7,3.9-5.4,2.2-8.3l-7.5-13c-1.7-2.9-5.4-3.9-8.3-2.2-2.9,1.7-3.9,5.4-2.2,8.3l7.5,13Z"/>
      <path class="st2" d="M330.2,185.1l-13-7.5c-2.9-1.7-6.6-.7-8.3,2.2-1.7,2.9-.7,6.6,2.2,8.3l13,7.5c1,.6,2,.8,3,.8,2.1,0,4.1-1.1,5.3-3,1.7-2.9.7-6.6-2.2-8.3Z"/>
      <path class="st2" d="M447,196.4c1,0,2.1-.3,3-.8l13-7.5c2.9-1.7,3.9-5.4,2.2-8.3-1.7-2.9-5.4-3.9-8.3-2.2l-13,7.5c-2.9,1.7-3.9,5.4-2.2,8.3,1.1,1.9,3.1,3,5.2,3Z"/>
      <path class="st2" d="M418.6,170.3c1,.6,2,.8,3,.8,2.1,0,4.1-1.1,5.3-3l7.5-13c1.7-2.9.7-6.6-2.2-8.3-2.9-1.7-6.6-.7-8.3,2.2l-7.5,13c-1.7,2.9-.7,6.6,2.2,8.3Z"/>
      <path class="st2" d="M389.5,173.5c-16.9-.8-32.7,6.5-43.4,20.2-5.6,7.3-9.2,16-10.2,25.2-1.6,13.9,2.2,27.3,10.7,38,6.2,7.8,10.5,15.4,13,23.2l1,3.1c.5,1.5,1.9,2.5,3.4,2.5h46c1.5,0,2.9-1,3.4-2.5l1-3.1c2.5-7.6,6.6-15,12.5-22.5,4.6-5.9,8.2-12.7,10-20,8.1-32.7-16.4-62.6-47.6-64ZM419.6,233.2c-.7,2.8-3.2,4.7-6,4.7s-1,0-1.5-.2c-3.3-.8-5.3-4.1-4.5-7.4,2.1-8.5-1.3-14.8-3.5-17.8-3.9-5.2-9.8-8.4-16-8.7-3.4-.2-6-3-5.8-6.4.2-3.4,2.9-6,6.4-5.8,10,.5,19.2,5.4,25.3,13.6,3.5,4.7,9,14.7,5.6,28.1Z"/>
    </g>
  </g>
</svg>