<?xml version="1.0" encoding="UTF-8"?>
<svg id="Layer_4" xmlns="http://www.w3.org/2000/svg" version="1.1" viewBox="0 0 612 612">
  <!-- Generator: Adobe Illustrator 29.0.0, SVG Export Plug-In . SVG Version: 2.1.0 Build 186)  -->
  <defs>
    <style>
      .st0 {
        fill: #203a72;
      }

      .st1 {
        fill: #eaeaea;
      }

      .st2 {
        fill: #14a0de;
      }
    </style>
  </defs>
  <circle class="st1" cx="306" cy="306" r="283"/>
  <g>
    <path class="st2" d="M306,226.3c14.9,0,27-12.1,27-27s-12.1-27-27-27-27,12.1-27,27,12.1,27,27,27Z"/>
    <path class="st2" d="M335.4,346.2c-2.5-17.9-3.8-36.2-3.8-54.3v-35.2h30.7l5.5-11.6c2.3-4.8,5.5-9,9.3-12.4h-142.4c3.9,3.4,7.1,7.6,9.3,12.4l5.5,11.6h30.7v35.2c0,18.1-1.3,36.4-3.8,54.3l-11,77.4c-1.1,7.7,4.2,14.7,11.9,15.8.7,0,1.3.1,2,.1,6.9,0,12.8-5,13.8-12l11-77.4c.7-4.6,1.2-9.3,1.7-14,.5,4.7,1.1,9.4,1.7,14l11,77.4c1,7,7,12,13.8,12s1.3,0,2-.1c7.6-1.1,13-8.2,11.9-15.8l-11-77.4Z"/>
    <path class="st0" d="M478.9,304.5l-26.3-55.1c-4.8-10.1-15.2-16.7-26.5-16.7h-22.9c-11.2,0-21.6,6.6-26.5,16.7l-26.3,55.1c-2.9,6-.3,13.1,5.7,16,6,2.9,13.1.3,16-5.7l16.9-35.5v12.5c0,18.1-1.3,36.4-3.8,54.3l-11,77.4c-1.1,7.6,4.2,14.7,11.9,15.8.7,0,1.3.1,2,.1,6.9,0,12.8-5,13.8-12l11-77.4c.7-4.7,1.2-9.3,1.7-14,.5,4.7,1.1,9.4,1.7,14l11,77.4c1,7,7,12,13.8,12s1.3,0,2-.1c7.7-1.1,13-8.2,11.9-15.8l-11-77.4c-2.5-17.9-3.8-36.2-3.8-54.3v-12.5l16.9,35.5c2.1,4.3,6.4,6.8,10.8,6.8s3.5-.4,5.2-1.2c6-2.9,8.5-10,5.7-16Z"/>
    <circle class="st0" cx="414.8" cy="199.4" r="27" transform="translate(-19.5 351.7) rotate(-45)"/>
    <path class="st0" d="M235.1,249.5c-4.8-10.1-15.2-16.7-26.5-16.7h-22.9c-11.2,0-21.6,6.6-26.5,16.7l-26.3,55.1c-2.9,6-.3,13.1,5.7,16,6,2.9,13.1.3,16-5.7l16.9-35.5v12.5c0,18.1-1.3,36.4-3.8,54.3l-11,77.4c-1.1,7.7,4.2,14.7,11.9,15.8.7,0,1.3.1,2,.1,6.9,0,12.8-5,13.8-12l11-77.4c.7-4.7,1.2-9.3,1.7-14,.5,4.7,1.1,9.4,1.7,14l11,77.4c1,7,7,12,13.8,12s1.3,0,2-.1c7.7-1.1,13-8.2,11.9-15.8l-11-77.4c-2.5-17.9-3.8-36.2-3.8-54.3v-12.5l16.9,35.5c2.1,4.3,6.4,6.8,10.8,6.8s3.5-.4,5.2-1.2c6-2.9,8.5-10,5.7-16l-26.3-55.1Z"/>
    <path class="st0" d="M197.2,226.3c14.9,0,27-12.1,27-27s-12.1-27-27-27-27,12.1-27,27,12.1,27,27,27Z"/>
  </g>
</svg>