<?xml version="1.0" encoding="UTF-8"?>
<svg id="Layer_4" xmlns="http://www.w3.org/2000/svg" version="1.1" viewBox="0 0 612 612">
  <!-- Generator: Adobe Illustrator 29.0.0, SVG Export Plug-In . SVG Version: 2.1.0 Build 186)  -->
  <defs>
    <style>
      .st0 {
        fill: #203a72;
      }

      .st1 {
        fill: #eaeaea;
      }

      .st2 {
        fill: #14a0de;
      }
    </style>
  </defs>
  <circle class="st1" cx="306" cy="306" r="283"/>
  <g>
    <path class="st2" d="M404.3,320.2l-67-17,12-20.2c1.5-2.5-1.3-5.3-3.8-3.8l-20.2,12-17-67c-.6-2.5-4.1-2.5-4.7,0l-17,67-20.2-12c-2.5-1.5-5.3,1.3-3.8,3.8l12,20.2-67,17c-2.5.6-2.5,4.1,0,4.7l67,17-12,20.2c-1.5,2.5,1.3,5.3,3.8,3.8l20.2-12,17,67c.6,2.5,4.1,2.5,4.7,0l17-67,20.2,12c2.5,1.5,5.3-1.3,3.8-3.8l-12-20.2,67-17c2.5-.6,2.5-4.1,0-4.7ZM306,338.5c-8.8,0-16-7.2-16-16s7.2-16,16-16,16,7.2,16,16-7.2,16-16,16Z"/>
    <circle class="st0" cx="246.4" cy="262.9" r="10.3"/>
    <circle class="st0" cx="246.3" cy="382.2" r="10.3"/>
    <path class="st0" d="M365.6,371.9c-5.7,0-10.3,4.6-10.3,10.3s4.6,10.3,10.3,10.3,10.3-4.6,10.3-10.3-4.6-10.3-10.3-10.3Z"/>
    <path class="st0" d="M365.7,273.2c5.7,0,10.3-4.6,10.3-10.3s-4.6-10.3-10.3-10.3-10.3,4.6-10.3,10.3,4.6,10.3,10.3,10.3Z"/>
    <path class="st0" d="M470.7,315.1l-30.6-21.1c-11-51.8-51.4-92.7-102.8-104.8,14-16.3,13.4-40.8-2-56.2-7.8-7.8-18.2-12.2-29.3-12.2s-21.5,4.3-29.3,12.2c-15.4,15.4-16,40-2,56.2-51.4,12.1-91.7,53-102.8,104.8l-30.6,21.1c-5.2,3.6-5.2,11.3,0,14.9l30.6,21.1c11.2,52.7,52.8,94.3,105.5,105.5l21.1,30.6c3.6,5.2,11.3,5.2,14.9,0l21.1-30.6c52.7-11.2,94.3-52.8,105.5-105.5l30.6-21.1c5.2-3.6,5.2-11.3,0-14.9ZM306,436.6c-62.9,0-114-51.1-114-114s51.1-114,114-114,114,51.1,114,114-51.1,114-114,114ZM292.9,149.2c3.5-3.5,8.1-5.4,13.1-5.4s9.6,1.9,13.1,5.4c7.2,7.2,7.2,18.9,0,26.1-7.2,7.2-18.9,7.2-26.1,0-7.2-7.2-7.2-18.9,0-26.1Z"/>
  </g>
</svg>