<?xml version="1.0" encoding="UTF-8"?>
<svg id="Layer_4" xmlns="http://www.w3.org/2000/svg" version="1.1" viewBox="0 0 612 612">
  <!-- Generator: Adobe Illustrator 29.0.0, SVG Export Plug-In . SVG Version: 2.1.0 Build 186)  -->
  <defs>
    <style>
      .st0 {
        fill: #203a72;
      }

      .st1 {
        fill: #eaeaea;
      }

      .st2 {
        fill: #14a0de;
      }
    </style>
  </defs>
  <circle class="st1" cx="306" cy="306" r="283"/>
  <g>
    <g>
      <path class="st0" d="M342.4,404.7h-72.7c-2.1,0-3.7,1.7-3.7,3.7v25.4c0,2.1,1.7,3.7,3.7,3.7h8.6c2.2,13.3,13.8,23.5,27.8,23.5s25.5-10.2,27.8-23.5h8.6c2.1,0,3.7-1.7,3.7-3.7v-25.4c0-2.1-1.7-3.7-3.8-3.7Z"/>
      <path class="st2" d="M306,192.9c5.2,0,9.4-4.2,9.4-9.4v-23.2c0-5.2-4.2-9.4-9.4-9.4s-9.4,4.2-9.4,9.4v23.2c0,5.2,4.2,9.4,9.4,9.4Z"/>
      <path class="st2" d="M244.3,202.6c1.7,3,4.9,4.7,8.1,4.7s3.2-.4,4.7-1.3c4.5-2.6,6-8.3,3.4-12.8l-11.6-20.1c-2.6-4.5-8.3-6-12.8-3.4-4.5,2.6-6,8.3-3.4,12.8l11.6,20.1Z"/>
      <path class="st2" d="M217.9,228.9l-20.1-11.6c-4.5-2.6-10.2-1.1-12.8,3.4-2.6,4.5-1.1,10.2,3.4,12.8l20.1,11.6c1.5.9,3.1,1.3,4.7,1.3,3.2,0,6.4-1.7,8.1-4.7,2.6-4.5,1.1-10.2-3.4-12.8Z"/>
      <path class="st2" d="M208.3,290.6c0-5.2-4.2-9.4-9.4-9.4h-23.2c-5.2,0-9.4,4.2-9.4,9.4s4.2,9.4,9.4,9.4h23.2c5.2,0,9.4-4.2,9.4-9.4Z"/>
      <path class="st2" d="M208.5,336.1l-20.1,11.6c-4.5,2.6-6,8.3-3.4,12.8,1.7,3,4.9,4.7,8.1,4.7s3.2-.4,4.7-1.3l20.1-11.6c4.5-2.6,6-8.3,3.4-12.8-2.6-4.5-8.3-6-12.8-3.4Z"/>
      <path class="st2" d="M423.5,347.7l-20.1-11.6c-4.5-2.6-10.2-1.1-12.8,3.4-2.6,4.5-1.1,10.2,3.4,12.8l20.1,11.6c1.5.9,3.1,1.3,4.7,1.3,3.2,0,6.4-1.7,8.1-4.7,2.6-4.5,1.1-10.2-3.4-12.8Z"/>
      <path class="st2" d="M436.3,281.2h-23.2c-5.2,0-9.4,4.2-9.4,9.4s4.2,9.4,9.4,9.4h23.2c5.2,0,9.4-4.2,9.4-9.4s-4.2-9.4-9.4-9.4Z"/>
      <path class="st2" d="M398.8,246.5c1.6,0,3.2-.4,4.7-1.3l20.1-11.6c4.5-2.6,6-8.3,3.4-12.8-2.6-4.5-8.3-6-12.8-3.4l-20.1,11.6c-4.5,2.6-6,8.3-3.4,12.8,1.7,3,4.9,4.7,8.1,4.7Z"/>
      <path class="st2" d="M354.9,206c1.5.9,3.1,1.3,4.7,1.3,3.2,0,6.4-1.7,8.1-4.7l11.6-20.1c2.6-4.5,1.1-10.2-3.4-12.8-4.5-2.6-10.2-1.1-12.8,3.4l-11.6,20.1c-2.6,4.5-1.1,10.2,3.4,12.8Z"/>
    </g>
    <path class="st0" d="M309.7,210.9c-26.1-1.2-50.7,10-67.2,31.3-8.7,11.2-14.2,24.8-15.8,39-2.4,21.6,3.4,42.2,16.6,58.9,9.6,12.1,16.2,23.9,20.2,35.9l1.6,4.8c.8,2.3,2.9,3.8,5.3,3.8h71.2c2.4,0,4.5-1.5,5.3-3.8l1.6-4.8c3.9-11.7,10.3-23.2,19.4-34.9,7.2-9.2,12.7-19.7,15.5-31,12.5-50.6-25.4-97-73.7-99.2ZM343.1,287.1l-39.4,39.4c-2.1,2.1-4.9,3.2-7.6,3.2s-5.5-1.1-7.6-3.2l-19.6-19.6c-4.2-4.2-4.2-11,0-15.2,4.2-4.2,11-4.2,15.2,0l12,11.9,31.8-31.8c4.2-4.2,11-4.2,15.2,0,4.2,4.2,4.2,11,0,15.2Z"/>
  </g>
</svg>