<?xml version="1.0" encoding="UTF-8"?>
<svg id="Layer_4" xmlns="http://www.w3.org/2000/svg" version="1.1" viewBox="0 0 612 612">
  <!-- Generator: Adobe Illustrator 29.0.0, SVG Export Plug-In . SVG Version: 2.1.0 Build 186)  -->
  <defs>
    <style>
      .st0 {
        fill: #c0bebd;
      }

      .st1 {
        fill: #1e9fda;
      }

      .st2 {
        fill: #c0bdbc;
      }

      .st3 {
        fill: #203b72;
      }
    </style>
  </defs>
  <g>
    <path class="st0" d="M571.2,272.3c-2.2-10.7-11.7-18-22.2-18s-3,.1-4.6.5c-12.2,2.5-20.1,14.5-17.5,26.7,2,9.6,3.3,19.3,4.1,29.1.9,11.8,10.8,21,22.5,21h1.7c12.4-1,21.8-11.9,20.9-24.3-.9-11.6-2.5-23.4-4.9-34.9h0Z"/>
    <path class="st0" d="M498,209.1c6.3,10.3,20.7,13.8,31.1,7.4,5.1-3.2,8.7-8.2,10.1-14,1.4-5.9.4-12-2.8-17.1-6.2-10-13-19.6-20.4-28.7-3.8-4.7-9.2-7.6-15.2-8.2-.8,0-1.6-.1-2.4-.1-5.2,0-10.2,1.8-14.2,5.1-4.7,3.8-7.6,9.2-8.2,15.2s1.1,11.9,5,16.6c6.1,7.5,11.8,15.6,17,23.9h0Z"/>
    <path class="st0" d="M551,372.4c-2-.5-4-.8-6-.8-9.9,0-19.1,6.6-21.8,16.6-2.6,9.3-5.9,18.6-9.7,27.6-4.9,11.5.5,24.8,11.9,29.7,11.3,4.8,24.9-.8,29.7-11.9,4.6-10.8,8.6-22,11.7-33.3,1.6-5.8.9-11.9-2.1-17.2-3-5.3-7.8-9.1-13.6-10.7h-.1Z"/>
    <path class="st0" d="M487.4,473.8h-.8c-6,.2-11.6,2.8-15.7,7.2-6.6,7.1-13.8,13.9-21.4,20.1-9.6,7.9-11,22.2-3.1,31.8,7.6,9.2,22.6,10.7,31.9,3.1,9-7.5,17.7-15.6,25.7-24.1,8.5-9.1,8-23.5-1.1-32-4.2-4-9.7-6.1-15.4-6.1h-.1Z"/>
    <path class="st0" d="M275.5,550.3c-9.8-1.4-19.5-3.3-28.8-5.9-2-.5-4-.8-6-.8-3.9,0-7.7,1-11.2,3-5.2,3-9,7.9-10.6,13.7-3.3,12,3.8,24.5,15.9,27.8,11.2,3.1,22.8,5.4,34.5,7,12.4,1.7,23.8-7.2,25.5-19.3.8-6-.7-11.9-4.4-16.7-3.6-4.8-9-7.9-14.9-8.8Z"/>
    <path class="st0" d="M153.6,492.7c-4.2-3.9-9.6-6-15.4-6s-.6,0-.9,0c-6,.2-11.6,2.8-15.7,7.2-4.1,4.4-6.2,10.2-6,16.2s2.8,11.6,7.2,15.7c8.6,8,17.8,15.4,27.4,22.2,9.8,7,24.6,4.4,31.5-5.4,7.2-10.2,4.8-24.3-5.4-31.5-8-5.6-15.6-11.9-22.8-18.5h0Z"/>
    <path class="st0" d="M94.5,403.9c-2.1-5.7-6.2-10.2-11.7-12.8-3-1.4-6.3-2.1-9.6-2.1s-5.2.5-7.7,1.4c-11.7,4.3-17.8,17.3-13.6,29,4,11,8.7,21.8,14.2,32.3,5.6,10.7,19.7,15.3,30.5,9.6,11.1-5.7,15.4-19.4,9.6-30.5-4.5-8.6-8.4-17.6-11.8-26.9h0Z"/>
    <path class="st0" d="M398.9,540.4c-3.1-1.5-6.4-2.2-9.7-2.2s-5.1.4-7.6,1.3c-9.3,3.3-18.7,6-28.2,8-5.9,1.3-11,4.7-14.3,9.8s-4.4,11.1-3.1,17c2.5,12,14.9,20,26.8,17.4,11.5-2.4,22.9-5.7,34-9.6,5.7-2,10.3-6.2,12.8-11.6,2.6-5.4,2.9-11.6.9-17.3s-6.2-10.2-11.6-12.8h0Z"/>
  </g>
  <g>
    <path class="st1" d="M236.7,317.9c0-11.7,3-22.8,8.2-32.5h-53.5v-21.6c0-6.7-7.7-10.5-13-6.4l-56.2,43.4c-4.2,3.2-4.2,9.6,0,12.8l56.2,43.4c5.3,4.2,13,.3,13-6.4v-21.6h46.2c-.6-3.6-.9-7.4-.9-11.1h0Z"/>
    <path class="st1" d="M262.6,209.4h21.6v42.7c6.9-2.2,14.2-3.5,21.8-3.5s14.9,1.3,21.8,3.5v-42.7h21.6c6.7,0,10.5-7.7,6.4-13.1l-43.4-56.1c-3.2-4.2-9.5-4.2-12.8,0l-43.4,56.1c-4.1,5.3-.3,13.1,6.4,13.1Z"/>
    <path class="st1" d="M489.8,300.8l-56.2-43.4c-5.3-4.1-13.1-.3-13.1,6.4v21.6h-53.4c5.2,9.7,8.2,20.8,8.2,32.5s-.3,7.5-.9,11.1h46.2v21.6c0,6.7,7.7,10.5,13.1,6.4l56.2-43.4c4.2-3.2,4.2-9.6,0-12.8h-.1Z"/>
    <path class="st3" d="M343.8,378.3l-1.6-.6-1.4.8c-21.6,12.4-48.1,12.4-69.6,0l-1.4-.8-1.6.6c-30.8,12-50.7,41-50.7,73.9v11.8c0,6,4.9,10.8,10.8,10.8h155.5c6,0,10.8-4.9,10.8-10.8v-11.8c0-32.9-19.9-61.9-50.7-73.9h0Z"/>
    <path class="st3" d="M306,267.8c-27.6,0-50.1,22.5-50.1,50.1s22.5,50.1,50.1,50.1,50.1-22.5,50.1-50.1-22.5-50.1-50.1-50.1Z"/>
  </g>
  <path class="st2" d="M81.1,327.2c0-124.2,101-225.2,225.2-225.2h60.5v23.4c0,6.1,3.3,11.7,8.7,14.7,2.5,1.4,5.3,2,8,2s6.3-.9,9-2.6l71.8-46.1c4.8-3.1,7.7-8.3,7.7-14s-2.9-11-7.7-14.1h0l-71.8-46.1c-5.1-3.3-11.7-3.5-17-.6-5.4,2.9-8.7,8.5-8.7,14.7v23.4h-60.5c-149.1,0-270.4,121.3-270.4,270.4,0,0,0-.8.4,2.3,2,8.3,11.2,20.3,22.2,20.3s22.6-10.1,22.6-22.6h0Z"/>
</svg>