<?xml version="1.0" encoding="UTF-8"?>
<svg id="Layer_4" xmlns="http://www.w3.org/2000/svg" version="1.1" viewBox="0 0 612 612">
  <!-- Generator: Adobe Illustrator 29.0.0, SVG Export Plug-In . SVG Version: 2.1.0 Build 186)  -->
  <defs>
    <style>
      .st0 {
        fill: #203a72;
      }

      .st1 {
        fill: #eaeaea;
      }

      .st2 {
        fill: #14a0de;
      }
    </style>
  </defs>
  <circle class="st1" cx="306" cy="306" r="283"/>
  <g>
    <g>
      <path class="st0" d="M170.2,170.7c-15,.7-26.6,13.4-25.9,28.3.7,15,13.4,26.6,28.3,25.9,15-.7,26.6-13.4,25.9-28.3-.7-15-13.4-26.6-28.3-25.9Z"/>
      <path class="st0" d="M166.5,319l18.9-51.2c4.4-11.8,14-20.6,25.7-24.2-5.6-7.5-14.6-12.2-24.3-12.2h-30.9c-12.6,0-24.1,8-28.5,19.8l-18.9,51.2c-2,5.5.8,11.5,6.2,13.6,5.5,2,11.6-.8,13.6-6.2l13.8-37.5v145.7c0,6.6,4.9,12.2,11.1,12.8,3.5.3,6.9-.8,9.5-3.1,2.6-2.3,4-5.7,4-9.1v-83.7c0-.3.1-.5.1-.7-2-4.6-2.4-9.9-.5-15Z"/>
      <path class="st0" d="M178.4,344.6c-.9-.3-1.7-.7-2.5-1.1v74.4c0,6.6,4.9,12.2,11.1,12.8,3.5.3,6.9-.8,9.5-3.1,1.4-1.3,2.4-2.8,3.1-4.5v-83.3c-5.3,5.5-13.6,7.7-21.3,4.9Z"/>
      <path class="st0" d="M236.9,190.5c-15,.7-26.6,13.4-25.9,28.3.7,15,13.4,26.6,28.3,25.9,15-.7,26.6-13.4,25.9-28.3-.7-15-13.4-26.6-28.3-25.9Z"/>
      <path class="st0" d="M245.1,364.5c-.9-.3-1.7-.7-2.5-1.2v74.4c0,6.6,4.9,12.2,11.1,12.8,3.5.3,6.9-.8,9.5-3.1,1.4-1.2,2.4-2.8,3.1-4.5v-83.3c-5.3,5.5-13.6,7.7-21.3,4.9Z"/>
      <path class="st0" d="M233.3,338.9l18.9-51.2c4.3-11.8,14.1-20.7,25.7-24.2-5.7-7.5-14.7-12.2-24.3-12.2h-30.9c-12.6,0-24.1,8-28.5,19.8l-18.9,51.2c-2,5.5.8,11.5,6.3,13.6,5.5,2,11.5-.8,13.6-6.3l13.8-37.5v145.7c0,6.6,4.9,12.2,11.1,12.8,3.5.3,6.9-.8,9.5-3.1,2.5-2.3,4-5.7,4-9.1v-83.7c0-.3,0-.6,0-.9h0c-2-4.6-2.3-9.8-.5-14.8Z"/>
      <path class="st0" d="M439.6,170.7c-15-.7-27.7,10.9-28.3,25.9-.7,15,10.9,27.7,25.9,28.3,15,.7,27.7-10.9,28.3-25.9.7-15-10.9-27.7-25.9-28.3Z"/>
      <path class="st0" d="M410.1,339.7v83.3c.7,1.7,1.7,3.3,3.1,4.5,2.6,2.4,6,3.5,9.5,3.1,6.2-.6,11.1-6.2,11.1-12.8v-74.4c-.8.4-1.6.8-2.5,1.1-7.7,2.8-16,.6-21.3-4.9Z"/>
      <path class="st0" d="M482.3,251.2c-4.4-11.9-15.8-19.8-28.5-19.8h-30.9c-9.7,0-18.7,4.7-24.3,12.2,11.6,3.6,21.3,12.4,25.7,24.2l18.9,51.2c1.9,5.1,1.5,10.4-.5,15,0,.2.1.5.1.7v83.7c0,3.5,1.5,6.8,4,9.1,2.6,2.4,6,3.5,9.5,3.1,6.2-.6,11.1-6.2,11.1-12.8v-145.7l13.8,37.5c2,5.5,8.1,8.3,13.6,6.2,5.5-2,8.3-8.1,6.2-13.6l-18.9-51.2Z"/>
      <path class="st0" d="M370.4,244.8c15,.7,27.7-10.9,28.3-25.9.7-15-10.9-27.7-25.9-28.3-15-.7-27.7,10.9-28.3,25.9-.7,15,10.9,27.7,25.9,28.3Z"/>
      <path class="st0" d="M343.4,359.5v83.6c.7,1.6,1.7,3.1,3.1,4.3,2.6,2.4,6,3.5,9.5,3.1,6.3-.6,11.1-6.2,11.1-12.8v-74.3c-2.9,1.5-6.1,2.3-9.3,2.3-5.5,0-10.7-2.3-14.4-6.2Z"/>
      <path class="st0" d="M415.5,271c-4.4-11.8-15.8-19.8-28.5-19.8h-30.9c-9.7,0-18.7,4.7-24.3,12.2,11.7,3.6,21.4,12.4,25.7,24.2l18.8,50.9c1.9,5.1,1.6,10.5-.4,15.2,0,.3,0,.5,0,.8v83.7c0,3.4,1.5,6.8,4,9.1,2.6,2.4,6,3.5,9.5,3.1,6.3-.6,11.1-6.2,11.1-12.8v-145.7l13.9,37.5c2,5.5,8.1,8.3,13.6,6.3,5.4-2,8.2-8.1,6.3-13.6l-18.9-51.2Z"/>
      <path class="st0" d="M303.7,210.4c-15,.7-26.6,13.4-25.9,28.3.7,15,13.4,26.6,28.3,25.9,15-.7,26.6-13.4,25.9-28.3-.7-15-13.4-26.6-28.3-25.9Z"/>
      <path class="st0" d="M348.8,290.9c-4.4-11.9-15.8-19.8-28.5-19.8h-30.9c-12.6,0-24.1,8-28.5,19.8l-18.9,51.2c-2,5.5.8,11.5,6.3,13.6,5.5,2,11.6-.8,13.6-6.2l13.8-37.5v145.7c0,6.6,4.9,12.2,11.1,12.8,3.5.3,6.9-.8,9.5-3.2,2.6-2.3,4-5.7,4-9.1v-83.7c0-2.5,2-4.5,4.5-4.5s4.5,2,4.5,4.5v83.2c0,6.6,4.9,12.2,11.1,12.8,3.5.3,6.9-.8,9.5-3.1,2.6-2.3,4-5.7,4-9.1v-146.2l13.8,37.5c1.5,4.1,5.5,6.9,9.9,6.9s3.9-.6,5.6-1.6c4.3-2.6,6-8,4.2-12.9l-18.8-50.9Z"/>
    </g>
    <g>
      <path class="st2" d="M304.9,177.4c4.1,0,7.5-3.4,7.5-7.5v-20.9c0-4.1-3.4-7.5-7.5-7.5s-7.5,3.4-7.5,7.5v20.9c0,4.1,3.4,7.5,7.5,7.5Z"/>
      <path class="st2" d="M332.6,183.1c1,.4,1.9.6,2.9.6,2.9,0,5.7-1.7,6.9-4.6l8.2-19.2c1.6-3.8-.2-8.2-4-9.8-3.8-1.6-8.2.2-9.8,4l-8.2,19.2c-1.6,3.8.2,8.2,4,9.8Z"/>
      <path class="st2" d="M267.3,179.1c1.2,2.9,4,4.6,6.9,4.6s2-.2,2.9-.6c3.8-1.6,5.6-6,4-9.8l-8.2-19.2c-1.6-3.8-6-5.6-9.8-4-3.8,1.6-5.6,6-4,9.8l8.2,19.2Z"/>
    </g>
  </g>
</svg>