<?xml version="1.0" encoding="UTF-8"?>
<svg id="Layer_4" xmlns="http://www.w3.org/2000/svg" version="1.1" viewBox="0 0 612 612">
  <!-- Generator: Adobe Illustrator 29.0.0, SVG Export Plug-In . SVG Version: 2.1.0 Build 186)  -->
  <defs>
    <style>
      .st0 {
        fill: #203a72;
      }

      .st1 {
        fill: #eaeaea;
      }

      .st2 {
        fill: #14a0de;
      }
    </style>
  </defs>
  <circle class="st1" cx="306" cy="306" r="283"/>
  <g>
    <path class="st0" d="M292,142.6c-81.9-3.6-149.6,61.9-149.5,142.9,0,79,64.2,143.2,143.2,143.2,33.8,0,64.8-11.8,89.3-31.5l58.4,65.4c7.9,8.9,21.6,9.2,30,.8h0c8.4-8.4,8-22.1-.8-30l-65.4-58.4c19.4-24.2,31.2-54.7,31.5-88.1.7-76-60.8-140.9-136.7-144.3ZM408.5,285.7c0,67.7-55.2,122.8-122.8,122.8-67.9,0-122.9-55.1-122.9-122.9,0-67.7,55.1-122.8,122.8-122.8,67.8,0,122.9,55.1,122.9,122.9Z"/>
    <path class="st0" d="M379.8,331.3c23.8-48.9,6.2-108.6-41.7-136.3-14.2-8.2-29.5-12.6-44.8-13.7v100s86.6,50,86.6,50Z"/>
    <path class="st0" d="M233.4,376.3c47.9,27.6,108.4,13.1,138.9-32l-86.6-50-86.6,50c8.6,12.7,20,23.8,34.2,32ZM220.2,348.3l65.6-37.9,65.5,37.8c-28.3,29.7-74.3,37.1-110.9,16-7.5-4.3-14.3-9.7-20.2-15.9Z"/>
    <path class="st2" d="M278.3,181.3c-33.4,2.4-65.1,20.8-83.1,52.1-18,31.2-18.1,67.9-3.5,98l86.7-50v-100.1ZM243.3,205.7c6.6-3.5,13.6-6.3,21-8.1v20.2s-21-12.1-21-12.1ZM219.7,223.7c3.2-3.4,6.7-6.6,10.4-9.5l34.2,19.8v15.5s-44.6-25.8-44.6-25.8ZM216.2,301.1l-17.5,10.1c-2.1-7.3-3.2-14.8-3.5-22.2l21,12.1ZM243.6,285.3l-13.4,7.8-34.2-19.8c.6-4.7,1.7-9.3,3-13.8l44.6,25.8ZM204.1,246.3c1-2,1.9-4,3.1-6,1.1-2,2.4-3.8,3.7-5.7l53.5,30.9v7.8s-6.7,3.9-6.7,3.9l-53.5-30.9Z"/>
  </g>
</svg>