<?xml version="1.0" encoding="UTF-8"?>
<svg id="Layer_4" xmlns="http://www.w3.org/2000/svg" version="1.1" viewBox="0 0 612 612">
  <!-- Generator: Adobe Illustrator 29.0.0, SVG Export Plug-In . SVG Version: 2.1.0 Build 186)  -->
  <defs>
    <style>
      .st0 {
        fill: #203a72;
      }

      .st1 {
        fill: #eaeaea;
      }

      .st2 {
        fill: #14a0de;
      }
    </style>
  </defs>
  <circle class="st1" cx="306" cy="306" r="283"/>
  <g>
    <g>
      <path class="st0" d="M387.9,283.7c3.3,2.9,5.3,7.1,5.3,11.8,0,7.3-5.2,13.6-12.1,15.2,4,3.5,6.3,9.1,5.1,15-1.5,7.3-8.5,12.2-15.9,12.2h-44.6l-3.1-5.6c-3.8-6.5-10.7-10.5-18.2-10.5s-14.4,4-18.2,10.5l-.4.8c-4.3-1-8.6-2.1-12.9-3.3,0-.8.3-1.7.3-2.4v-96.4c0-.4,0-.9-.2-1.4,11-7.6,22.7-20.6,27.3-25.8,1.3-1.5,2.4-3.1,3.1-4.9,2.8-5.9,9.5-21,11-31.2.8-5.4,4.5-8.5,9.4-8.1,7.9.5,19.2,10.4,19.2,26.7s-5.7,28.6-8.7,36.2c-.4,1.2-1,2.5-1.4,3.6h50.3c8,0,15.6,5.7,16.5,13.7.8,6.5-2.4,12.3-7.6,15.3,4.6,2.7,7.8,7.7,7.8,13.5,0,7.3-5.1,13.6-12,15.1Z"/>
      <path class="st0" d="M251,222.5h-33.6c-4.6,0-8.5,3.8-8.5,8.5v96.4c0,4.6,3.8,8.5,8.5,8.5h33.6c4.6,0,8.5-3.8,8.5-8.5v-96.4c0-4.7-3.8-8.5-8.5-8.5ZM234.2,320.9c-4.9,0-8.9-4-8.9-8.9s3.9-8.9,8.9-8.9,8.9,3.9,8.9,8.9-4,8.9-8.9,8.9Z"/>
    </g>
    <path class="st2" d="M424.6,363.7h-99.3l-14.2-24.7c-3-5.2-10.4-5.2-13.4,0l-14.2,24.7h-99.3c-13.9,0-25.1,11.3-25.1,25.1v42c0,13.9,11.3,25.1,25.1,25.1h240.3c13.9,0,25.1-11.3,25.1-25.1v-42c0-13.8-11.2-25.1-25.1-25.1ZM222.9,405.8l-8.2,7.5,2.3,10.9c.2.8,0,1.6-.8,2.1-.7.4-1.6.5-2.3,0l-9.7-5.5-9.7,5.5c-.3.2-.7.3-1.1.3s-.9-.2-1.2-.4c-.6-.4-1-1.3-.8-2.1l2.3-10.9-8.2-7.5c-.6-.5-.9-1.4-.6-2.2.3-.8,1-1.4,1.8-1.5l11.1-1.2,4.6-10.1c.3-.7,1-1.2,1.9-1.2s1.6.4,1.9,1.2l4.6,10.1,11.1,1.2c.8,0,1.5.6,1.6,1.6.3.8,0,1.7-.6,2.2ZM272.9,405.8l-8.2,7.5,2.3,10.9c.2.8,0,1.6-.8,2.1-.7.4-1.6.5-2.3,0l-9.7-5.5-9.7,5.5c-.3.2-.7.3-1,.3s-.9-.2-1.2-.4c-.6-.4-1-1.3-.8-2.1l2.3-10.9-8.2-7.5c-.6-.5-.9-1.4-.6-2.2.3-.8,1-1.4,1.8-1.5l11.1-1.2,4.6-10.1c.3-.7,1-1.2,1.9-1.2s1.6.4,1.9,1.2l4.6,10.1,11.1,1.2c.9,0,1.5.6,1.6,1.6.3.8,0,1.7-.6,2.2ZM323.1,405.8l-8.2,7.5,2.3,10.9c.2.8,0,1.6-.8,2.1-.7.4-1.6.5-2.3,0l-9.7-5.5-9.7,5.5c-.3.2-.7.3-1,.3s-.9-.2-1.2-.4c-.6-.4-1-1.3-.8-2.1l2.2-10.9-8.2-7.5c-.6-.5-.9-1.4-.6-2.2.3-.8,1-1.4,1.7-1.5l11.1-1.2,4.6-10.1c.3-.7,1-1.2,1.9-1.2s1.6.4,1.9,1.2l4.6,10.1,11.1,1.2c.8,0,1.5.6,1.7,1.6.3.8,0,1.7-.6,2.2ZM373.1,405.8l-8.2,7.5,2.3,10.9c.2.8,0,1.6-.8,2.1-.7.4-1.6.5-2.3,0l-9.7-5.5-9.7,5.5c-.3.2-.7.3-1.1.3s-.9-.2-1.2-.4c-.6-.4-1-1.3-.8-2.1l2.3-10.9-8.2-7.5c-.6-.5-.9-1.4-.6-2.2.3-.8,1-1.4,1.8-1.5l11.1-1.2,4.6-10.1c.3-.7,1.1-1.2,1.9-1.2s1.6.4,1.9,1.2l4.6,10.1,11.1,1.2c.9,0,1.6.6,1.6,1.6.3.8,0,1.7-.6,2.2ZM423.2,405.8l-8.2,7.5,2.3,10.9c.2.8,0,1.6-.8,2.1-.7.4-1.6.5-2.3,0l-9.7-5.5-9.7,5.5c-.3.2-.7.3-1.1.3s-.9-.2-1.2-.4c-.6-.4-1-1.3-.8-2.1l2.3-10.9-8.2-7.5c-.6-.5-.9-1.4-.6-2.2.3-.8,1-1.4,1.8-1.5l11.1-1.2,4.6-10.1c.3-.7,1-1.2,1.9-1.2s1.6.4,1.9,1.2l4.6,10.1,11.1,1.2c.8,0,1.5.6,1.6,1.6.3.8,0,1.7-.6,2.2Z"/>
  </g>
</svg>