<?xml version="1.0" encoding="UTF-8"?>
<svg id="Layer_4" xmlns="http://www.w3.org/2000/svg" version="1.1" viewBox="0 0 612 612">
  <!-- Generator: Adobe Illustrator 29.0.0, SVG Export Plug-In . SVG Version: 2.1.0 Build 186)  -->
  <defs>
    <style>
      .st0 {
        fill: #203a72;
      }

      .st1 {
        fill: #eaeaea;
      }

      .st2 {
        fill: #14a0de;
      }
    </style>
  </defs>
  <circle class="st1" cx="306" cy="306" r="283"/>
  <g>
    <g>
      <path class="st0" d="M214,384.7c-8.3-1.8-13.8-9.6-12.8-18l2.9-24.4c1.8-14.9,11.7-27.2,25-32.3-3.6-3.2-6.5-6.8-8.6-11.1-1.4-.3-2.8-.6-4.3-.7h-.1c-4.1,1.6-8.5,2.4-13.2,2.4s-9.1-.8-13.2-2.4h0c-13.9,1.4-25.1,12.3-26.9,26.3l-2.9,24.3c-.3,3.2,1.7,6.2,4.8,6.8,4.5,1,9.1,1.7,13.6,2.3l3.4,57c.2,4.5,4,8,8.4,8h25.9c2.3,0,4.6-1,6.1-2.6l-2-34.5c-2.1-.3-4.1-.7-6-1.1Z"/>
      <path class="st0" d="M202.9,290.4c5,0,9.7-1.3,13.7-3.6-.4-1.8-.5-3.7-.5-5.6,0-11.5,5.1-21.9,13.2-28.9-4-10.7-14.3-18.4-26.4-18.4s-28.2,12.7-28.2,28.3,12.6,28.2,28.2,28.2Z"/>
      <path class="st0" d="M265.4,403.7c-8.3-1.7-13.8-9.5-12.8-18l2.9-24.3c1.8-14.8,11.7-27.1,24.9-32.4-3.6-3.1-6.4-6.7-8.5-10.9-1.4-.4-2.9-.7-4.5-.8-4.1,1.5-8.4,2.3-13,2.3s-8.9-.8-13-2.3c-14,1.2-25.5,12-27.3,26.2l-2.8,24.4c-.4,3.2,1.6,6.1,4.8,6.8,4.4.9,8.9,1.6,13.5,2.2l3.4,57.1c.2,4.5,4,7.9,8.4,7.9h25.9c2.3,0,4.6-1,6.1-2.5l-2-34.5c-2-.4-4.1-.8-6-1.2Z"/>
      <path class="st0" d="M254.4,309.4c4.9,0,9.6-1.3,13.6-3.5-.4-1.8-.5-3.7-.5-5.6,0-11.5,5.1-21.9,13.2-29-4-10.7-14.2-18.3-26.3-18.3s-28.2,12.6-28.2,28.2,12.6,28.2,28.2,28.2Z"/>
      <path class="st0" d="M449,324.5c-1.7-14.1-13-25-26.8-26.3q0,.1-.1,0c-4.1,1.6-8.5,2.4-13.2,2.4s-9.2-.8-13.2-2.4q0,.1,0,0c-1.4.1-2.9.4-4.2.7-2.1,4.3-5.1,7.9-8.6,11,13.2,5.3,23.1,17.5,24.9,32.4l2.9,24.4c1,8.4-4.5,16.2-12.7,18-1.9.4-4,.8-6.1,1.1l-1.9,34.5c1.5,1.6,3.8,2.6,6.1,2.6h25.9c4.5,0,8.2-3.6,8.4-8l3.3-57c4.7-.6,9.3-1.3,13.6-2.3,3.2-.6,5.2-3.7,4.8-6.8l-2.9-24.3Z"/>
      <path class="st0" d="M395.2,286.9c4.1,2.1,8.7,3.5,13.6,3.5,15.6,0,28.2-12.6,28.2-28.2s-12.6-28.3-28.2-28.3-22.4,7.7-26.3,18.4c8.1,7,13.2,17.4,13.2,28.9s-.1,3.9-.5,5.7Z"/>
      <path class="st0" d="M400.5,367.9l-2.9-24.4c-1.7-14.2-13.1-25-27.2-26.2-4.1,1.5-8.4,2.3-13,2.3s-9-.8-13-2.3c-1.5.1-3,.4-4.5.8-2.1,4.2-5,7.8-8.5,10.8,13.2,5.4,23.1,17.6,24.8,32.5l2.9,24.3c1,8.5-4.5,16.3-12.7,18-1.9.4-4,.8-6.1,1.2l-2,34.5c1.6,1.5,3.8,2.5,6.2,2.5h25.8c4.6,0,8.2-3.5,8.5-7.9l3.3-57.1c4.7-.6,9.3-1.3,13.6-2.2,3.2-.7,5.2-3.7,4.8-6.8Z"/>
      <path class="st0" d="M343.7,306c4.1,2.1,8.7,3.5,13.6,3.5,15.6,0,28.2-12.6,28.2-28.2s-12.6-28.2-28.2-28.2-22.4,7.6-26.3,18.3c8.1,7.1,13.2,17.5,13.2,29s-.1,3.8-.5,5.6Z"/>
      <path class="st0" d="M349,386.9l-2.9-24.3c-1.7-14.1-13-25-26.8-26.3q0,.1-.1,0c-4.1,1.6-8.5,2.4-13.2,2.4s-9.2-.8-13.2-2.4q-.1.1-.1,0c-13.8,1.3-25.1,12.2-26.9,26.3l-2.9,24.3c-.4,3.2,1.6,6.2,4.8,6.8,4.4,1,8.9,1.7,13.6,2.3l3.3,57c.3,4.5,4,8,8.4,8h25.9c4.5,0,8.2-3.6,8.5-8l3.3-57c4.6-.6,9.2-1.3,13.6-2.3,3-.6,5.2-3.7,4.8-6.8Z"/>
      <path class="st0" d="M305.9,328.5c15.6,0,28.2-12.6,28.2-28.2s-12.6-28.2-28.2-28.2-28.2,12.6-28.2,28.2,12.6,28.2,28.2,28.2Z"/>
    </g>
    <path class="st2" d="M305.9,253.1c28.1,0,51-22.8,51-51s-22.8-51-51-51-51,22.8-51,51,22.8,51,51,51ZM279.1,196.6c3.1-3.1,8.1-3.1,11.1,0l8.6,8.6,20.8-20.8c3.1-3.1,8.1-3.1,11.1,0,3.1,3.1,3.1,8.1,0,11.1l-26.4,26.4c-1.5,1.5-3.5,2.3-5.6,2.3s-4.1-.8-5.6-2.3l-14.2-14.2c-3.1-3.1-3.1-8.1,0-11.1Z"/>
  </g>
</svg>