<?xml version="1.0" encoding="UTF-8"?>
<svg id="Layer_4" xmlns="http://www.w3.org/2000/svg" version="1.1" viewBox="0 0 612 612">
  <!-- Generator: Adobe Illustrator 29.0.0, SVG Export Plug-In . SVG Version: 2.1.0 Build 186)  -->
  <defs>
    <style>
      .st0 {
        fill: #203a72;
      }

      .st1 {
        fill: #eaeaea;
      }

      .st2 {
        fill: #14a0de;
      }
    </style>
  </defs>
  <circle class="st1" cx="306" cy="306" r="283"/>
  <g>
    <path class="st0" d="M251.1,262.2h-63.1c-6.8,0-12.3,5.5-12.3,12.3v63.1c0,6.8,5.5,12.3,12.3,12.3h63.1c6.8,0,12.3-5.5,12.3-12.3v-63.1c0-6.8-5.5-12.3-12.3-12.3ZM245.9,332.3h-52.7v-52.7h52.7v52.7Z"/>
    <path class="st0" d="M251.1,373.1h-63.1c-6.8,0-12.3,5.5-12.3,12.3v63.1c0,6.8,5.5,12.3,12.3,12.3h63.1c6.8,0,12.3-5.5,12.3-12.3v-63.1c0-6.8-5.5-12.3-12.3-12.3ZM245.9,443.3h-52.7v-52.7h52.7v52.7Z"/>
    <path class="st2" d="M251.1,151.3h-63.1c-6.8,0-12.3,5.5-12.3,12.3v63.1c0,6.8,5.5,12.3,12.3,12.3h63.1c6.8,0,12.3-5.5,12.3-12.3v-63.1c0-6.8-5.5-12.3-12.3-12.3ZM240.5,189.3l-21.4,21.4c-1.3,1.3-3.1,2-4.9,2s-3.6-.7-4.9-2l-10.7-10.7c-2.7-2.7-2.7-7.1,0-9.9,2.7-2.7,7.1-2.7,9.9,0l5.8,5.8,16.4-16.4c2.7-2.7,7.1-2.7,9.9,0,2.7,2.7,2.7,7.1,0,9.9Z"/>
    <path class="st2" d="M293.2,184.8h134.3c4.8,0,8.7-3.9,8.7-8.7s-3.9-8.7-8.7-8.7h-134.3c-4.8,0-8.7,3.9-8.7,8.7s3.9,8.7,8.7,8.7Z"/>
    <path class="st2" d="M293.2,222.8h84.6c4.8,0,8.7-3.9,8.7-8.7s-3.9-8.7-8.7-8.7h-84.6c-4.8,0-8.7,3.9-8.7,8.7s3.9,8.7,8.7,8.7Z"/>
    <path class="st0" d="M427.5,278.3h-134.3c-4.8,0-8.7,3.9-8.7,8.7s3.9,8.7,8.7,8.7h134.3c4.8,0,8.7-3.9,8.7-8.7s-3.9-8.7-8.7-8.7Z"/>
    <path class="st0" d="M293.2,333.7h84.6c4.8,0,8.7-3.9,8.7-8.7s-3.9-8.7-8.7-8.7h-84.6c-4.8,0-8.7,3.9-8.7,8.7s3.9,8.7,8.7,8.7Z"/>
    <path class="st0" d="M427.5,389.2h-134.3c-4.8,0-8.7,3.9-8.7,8.7s3.9,8.7,8.7,8.7h134.3c4.8,0,8.7-3.9,8.7-8.7s-3.9-8.7-8.7-8.7Z"/>
    <path class="st0" d="M377.9,427.2h-84.6c-4.8,0-8.7,3.9-8.7,8.7s3.9,8.7,8.7,8.7h84.6c4.8,0,8.7-3.9,8.7-8.7s-3.9-8.7-8.7-8.7Z"/>
  </g>
</svg>