<?xml version="1.0" encoding="UTF-8"?>
<svg id="Layer_4" xmlns="http://www.w3.org/2000/svg" version="1.1" viewBox="0 0 612 612">
  <!-- Generator: Adobe Illustrator 29.0.0, SVG Export Plug-In . SVG Version: 2.1.0 Build 186)  -->
  <defs>
    <style>
      .st0 {
        fill: #203a72;
      }

      .st1 {
        fill: #eaeaea;
      }

      .st2 {
        fill: #14a0de;
      }

      .st3 {
        fill: #203b72;
      }
    </style>
  </defs>
  <circle class="st1" cx="306" cy="306" r="283"/>
  <g>
    <g>
      <path class="st0" d="M186.6,273.2c-3.5-3.5-9.2-3.5-12.7,0l-35.6,35.6c-3.5,3.5-3.5,9.2,0,12.7,3.5,3.5,9.2,3.5,12.7,0l20.4-20.4v57.1c0,18.5,15,33.4,33.4,33.4h10.3c.8-6.3,2.4-12.3,4.8-17.9h-15.1c-8.6,0-15.5-6.9-15.5-15.5v-57l20.3,20.3c1.7,1.8,4,2.6,6.3,2.6s4.6-.9,6.3-2.6c3.5-3.5,3.5-9.2,0-12.7l-35.6-35.6Z"/>
      <path class="st0" d="M438.1,273.2c-3.5-3.5-9.2-3.5-12.7,0l-35.6,35.6c-3.5,3.5-3.5,9.2,0,12.7,3.5,3.5,9.2,3.5,12.7,0l20.3-20.3v57.1c0,8.6-7,15.5-15.5,15.5h-15.1c2.3,5.6,4,11.7,4.9,17.9h10.2c18.5,0,33.4-15,33.4-33.4v-57.1l20.4,20.4c1.8,1.8,4,2.6,6.3,2.6s4.6-.9,6.3-2.6c3.5-3.5,3.5-9.2,0-12.7l-35.6-35.6Z"/>
      <path class="st2" d="M223.7,245.2c13.1,0,23.7-10.6,23.7-23.7v-86.8c0-13.1-10.6-23.7-23.7-23.7h-86.8c-13.1,0-23.7,10.6-23.7,23.7v86.8c0,13.1,10.6,23.7,23.7,23.7h86.8ZM144.1,170.4c4.3-4.3,11.4-4.3,15.7,0l11,11,30-30c4.3-4.3,11.4-4.3,15.7,0,4.3,4.3,4.3,11.3,0,15.7l-37.8,37.8c-2.2,2.2-5,3.2-7.8,3.2s-5.7-1.1-7.8-3.2l-18.8-18.8c-4.3-4.3-4.3-11.4,0-15.7Z"/>
      <path class="st2" d="M475.1,111h-86.8c-13.1,0-23.7,10.6-23.7,23.7v86.8c0,13.1,10.6,23.7,23.7,23.7h86.8c13.1,0,23.7-10.6,23.7-23.7v-86.8c0-13.1-10.6-23.7-23.7-23.7ZM462,192.7c4.3,4.3,4.3,11.4,0,15.7-2.2,2.2-5,3.2-7.8,3.2s-5.7-1.1-7.8-3.2l-14.6-14.6-14.6,14.6c-2.2,2.2-5,3.2-7.8,3.2s-5.7-1.1-7.8-3.2c-4.3-4.3-4.3-11.3,0-15.7l14.6-14.6-14.6-14.6c-4.3-4.3-4.3-11.3,0-15.7,4.3-4.3,11.4-4.3,15.7,0l14.6,14.6,14.6-14.6c4.3-4.3,11.4-4.3,15.7,0s4.3,11.4,0,15.7l-14.6,14.6,14.6,14.6Z"/>
    </g>
    <g>
      <path class="st3" d="M351,391.7l-1.9-.5c-2-.5-4.1.4-5,2.3l-28.5,59.7-3.7-33.2h2.5c2.2,0,3.9-1.8,3.9-3.9v-10.6c0-2.2-1.8-3.9-3.9-3.9h-16.7c-2.2,0-3.9,1.8-3.9,3.9v10.6c0,2.2,1.8,3.9,3.9,3.9h2.5l-3.7,33.3-28.6-59.7c-.9-1.9-3-2.8-5-2.3l-1.9.5c-22.4,8.1-39.3,28.2-42.3,53.1l-4.3,42.3c-.8,7.4,5.1,13.9,12.5,13.9h157.9c7.4,0,13.2-6.5,12.5-13.9l-4.2-42.2c-3-25-19.8-45.1-42.4-53.2h.2,0Z"/>
      <path class="st3" d="M306.2,282.5c-30.1,0-54.6,24.4-54.6,54.6s24.4,54.6,54.6,54.6,54.6-24.4,54.6-54.6-24.4-54.6-54.6-54.6h0Z"/>
    </g>
  </g>
</svg>