<?xml version="1.0" encoding="UTF-8"?>
<svg id="Layer_4" xmlns="http://www.w3.org/2000/svg" version="1.1" viewBox="0 0 612 612">
  <!-- Generator: Adobe Illustrator 29.0.0, SVG Export Plug-In . SVG Version: 2.1.0 Build 186)  -->
  <defs>
    <style>
      .st0 {
        fill: #203a72;
      }

      .st1 {
        fill: #eaeaea;
      }

      .st2 {
        fill: #14a0de;
      }
    </style>
  </defs>
  <circle class="st1" cx="306" cy="306" r="283"/>
  <g>
    <g>
      <path class="st2" d="M304.7,204.9c7.3,0,13.2-5.9,13.2-13.2v-36.9c0-7.3-5.9-13.2-13.2-13.2s-13.2,5.9-13.2,13.2v36.9c0,7.3,5.9,13.2,13.2,13.2Z"/>
      <path class="st2" d="M353.6,214.8c1.7.7,3.4,1.1,5.2,1.1,5.2,0,10.1-3,12.2-8.1l14.4-33.9c2.9-6.7-.3-14.5-7-17.3-6.7-2.9-14.5.3-17.3,7l-14.4,33.9c-2.9,6.7.3,14.5,7,17.3Z"/>
      <path class="st2" d="M238.3,207.7c2.1,5,7,8.1,12.2,8.1s3.5-.3,5.2-1.1c6.7-2.9,9.9-10.6,7-17.3l-14.4-33.9c-2.9-6.7-10.6-9.9-17.3-7-6.7,2.9-9.9,10.6-7,17.3l14.4,33.9Z"/>
    </g>
    <g>
      <path class="st0" d="M290,467.7c9.4,3.7,19.7,3.7,29.1,0l80.8-32c6.5-2.5,10.7-8.7,10.7-15.6v-59.3l-87.2,33.1c-6.1,2.3-12.4,3.5-18.9,3.5s-12.8-1.2-18.9-3.5l-87.2-33.1v59.3c0,6.9,4.2,13.1,10.7,15.6l80.8,32Z"/>
      <path class="st0" d="M470.9,405.7l-8.5-18.2c5.4-3,9.1-8.7,9.1-15.3s-3.8-12.4-9.3-15.4v-42.4l11.1-4.2c6.9-2.6,6.9-12.4,0-15l-157.4-59.9c-7.2-2.8-15.2-2.8-22.5,0l-157.4,59.9c-6.9,2.6-6.9,12.4,0,15l157.4,59.9c7.2,2.8,15.2,2.8,22.5,0l129.7-49.3v36.1c-5.5,3-9.3,8.7-9.3,15.4s3.7,12.3,9.1,15.3l-8.5,18.2c-1.8,3.9,1,8.3,5.3,8.3h23.4c4.3,0,7.1-4.4,5.3-8.3Z"/>
    </g>
  </g>
</svg>